# xmcd
#
# Track frame offsets:
#	150
#	21615
#	38420
#	50067
#	73277
#	91960
#	108597
#	120488
#	134840
#	147366
#	168030
#	184181
#	205822
#
# Disc length: 3168 seconds
#
# Revision: 0
# Processed by: cddbd v1.5.2PL0 Copyright (c) Steve Scherf et al.
# Submitted via: dBpowerAMP V4.0
#
DISCID=c30c5e0d
DTITLE=The Blues Overdrive - The Blues Overdrive
DYEAR=2013
DGENRE=Blues
TTITLE0=Death on The Highway
TTITLE1=Out in the country
TTITLE2=I was wrong
TTITLE3=Ball and chain
TTITLE4=Mr. 16 tons (blues for Thorup)
TTITLE5=Too blind to see
TTITLE6=Need your lovin'
TTITLE7=Got myself a woman
TTITLE8=Big fat woman
TTITLE9=Done tryin'
TTITLE10=Feelin' kinda blue
TTITLE11=Blues for the masses (demo take)
TTITLE12=Ball and chain (live)
EXTD=
EXTT0=
EXTT1=
EXTT2=
EXTT3=
EXTT4=
EXTT5=
EXTT6=
EXTT7=
EXTT8=
EXTT9=
EXTT10=
EXTT11=
EXTT12=
PLAYORDER=
